G04 #@! TF.GenerationSoftware,KiCad,Pcbnew,(7.0.0)*
G04 #@! TF.CreationDate,2023-02-28T22:51:40+01:00*
G04 #@! TF.ProjectId,N64-DENC-NUS-Adapter-SMD,4e36342d-4445-44e4-932d-4e55532d4164,rev?*
G04 #@! TF.SameCoordinates,Original*
G04 #@! TF.FileFunction,Legend,Bot*
G04 #@! TF.FilePolarity,Positive*
%FSLAX46Y46*%
G04 Gerber Fmt 4.6, Leading zero omitted, Abs format (unit mm)*
G04 Created by KiCad (PCBNEW (7.0.0)) date 2023-02-28 22:51:40*
%MOMM*%
%LPD*%
G01*
G04 APERTURE LIST*
%ADD10C,0.200000*%
%ADD11C,0.180000*%
G04 APERTURE END LIST*
D10*
X187342619Y-99057142D02*
X188342619Y-99057142D01*
X188342619Y-99057142D02*
X187342619Y-98485714D01*
X187342619Y-98485714D02*
X188342619Y-98485714D01*
X188342619Y-97580952D02*
X188342619Y-97771428D01*
X188342619Y-97771428D02*
X188295000Y-97866666D01*
X188295000Y-97866666D02*
X188247380Y-97914285D01*
X188247380Y-97914285D02*
X188104523Y-98009523D01*
X188104523Y-98009523D02*
X187914047Y-98057142D01*
X187914047Y-98057142D02*
X187533095Y-98057142D01*
X187533095Y-98057142D02*
X187437857Y-98009523D01*
X187437857Y-98009523D02*
X187390238Y-97961904D01*
X187390238Y-97961904D02*
X187342619Y-97866666D01*
X187342619Y-97866666D02*
X187342619Y-97676190D01*
X187342619Y-97676190D02*
X187390238Y-97580952D01*
X187390238Y-97580952D02*
X187437857Y-97533333D01*
X187437857Y-97533333D02*
X187533095Y-97485714D01*
X187533095Y-97485714D02*
X187771190Y-97485714D01*
X187771190Y-97485714D02*
X187866428Y-97533333D01*
X187866428Y-97533333D02*
X187914047Y-97580952D01*
X187914047Y-97580952D02*
X187961666Y-97676190D01*
X187961666Y-97676190D02*
X187961666Y-97866666D01*
X187961666Y-97866666D02*
X187914047Y-97961904D01*
X187914047Y-97961904D02*
X187866428Y-98009523D01*
X187866428Y-98009523D02*
X187771190Y-98057142D01*
X188009285Y-96628571D02*
X187342619Y-96628571D01*
X188390238Y-96866666D02*
X187675952Y-97104761D01*
X187675952Y-97104761D02*
X187675952Y-96485714D01*
X187342619Y-95504761D02*
X188342619Y-95504761D01*
X188342619Y-95504761D02*
X188342619Y-95266666D01*
X188342619Y-95266666D02*
X188295000Y-95123809D01*
X188295000Y-95123809D02*
X188199761Y-95028571D01*
X188199761Y-95028571D02*
X188104523Y-94980952D01*
X188104523Y-94980952D02*
X187914047Y-94933333D01*
X187914047Y-94933333D02*
X187771190Y-94933333D01*
X187771190Y-94933333D02*
X187580714Y-94980952D01*
X187580714Y-94980952D02*
X187485476Y-95028571D01*
X187485476Y-95028571D02*
X187390238Y-95123809D01*
X187390238Y-95123809D02*
X187342619Y-95266666D01*
X187342619Y-95266666D02*
X187342619Y-95504761D01*
X187866428Y-94504761D02*
X187866428Y-94171428D01*
X187342619Y-94028571D02*
X187342619Y-94504761D01*
X187342619Y-94504761D02*
X188342619Y-94504761D01*
X188342619Y-94504761D02*
X188342619Y-94028571D01*
X187342619Y-93599999D02*
X188342619Y-93599999D01*
X188342619Y-93599999D02*
X187342619Y-93028571D01*
X187342619Y-93028571D02*
X188342619Y-93028571D01*
X187437857Y-91980952D02*
X187390238Y-92028571D01*
X187390238Y-92028571D02*
X187342619Y-92171428D01*
X187342619Y-92171428D02*
X187342619Y-92266666D01*
X187342619Y-92266666D02*
X187390238Y-92409523D01*
X187390238Y-92409523D02*
X187485476Y-92504761D01*
X187485476Y-92504761D02*
X187580714Y-92552380D01*
X187580714Y-92552380D02*
X187771190Y-92599999D01*
X187771190Y-92599999D02*
X187914047Y-92599999D01*
X187914047Y-92599999D02*
X188104523Y-92552380D01*
X188104523Y-92552380D02*
X188199761Y-92504761D01*
X188199761Y-92504761D02*
X188295000Y-92409523D01*
X188295000Y-92409523D02*
X188342619Y-92266666D01*
X188342619Y-92266666D02*
X188342619Y-92171428D01*
X188342619Y-92171428D02*
X188295000Y-92028571D01*
X188295000Y-92028571D02*
X188247380Y-91980952D01*
X187723571Y-91552380D02*
X187723571Y-90790476D01*
X187342619Y-90314285D02*
X188342619Y-90314285D01*
X188342619Y-90314285D02*
X187342619Y-89742857D01*
X187342619Y-89742857D02*
X188342619Y-89742857D01*
X188342619Y-89266666D02*
X187533095Y-89266666D01*
X187533095Y-89266666D02*
X187437857Y-89219047D01*
X187437857Y-89219047D02*
X187390238Y-89171428D01*
X187390238Y-89171428D02*
X187342619Y-89076190D01*
X187342619Y-89076190D02*
X187342619Y-88885714D01*
X187342619Y-88885714D02*
X187390238Y-88790476D01*
X187390238Y-88790476D02*
X187437857Y-88742857D01*
X187437857Y-88742857D02*
X187533095Y-88695238D01*
X187533095Y-88695238D02*
X188342619Y-88695238D01*
X187390238Y-88266666D02*
X187342619Y-88123809D01*
X187342619Y-88123809D02*
X187342619Y-87885714D01*
X187342619Y-87885714D02*
X187390238Y-87790476D01*
X187390238Y-87790476D02*
X187437857Y-87742857D01*
X187437857Y-87742857D02*
X187533095Y-87695238D01*
X187533095Y-87695238D02*
X187628333Y-87695238D01*
X187628333Y-87695238D02*
X187723571Y-87742857D01*
X187723571Y-87742857D02*
X187771190Y-87790476D01*
X187771190Y-87790476D02*
X187818809Y-87885714D01*
X187818809Y-87885714D02*
X187866428Y-88076190D01*
X187866428Y-88076190D02*
X187914047Y-88171428D01*
X187914047Y-88171428D02*
X187961666Y-88219047D01*
X187961666Y-88219047D02*
X188056904Y-88266666D01*
X188056904Y-88266666D02*
X188152142Y-88266666D01*
X188152142Y-88266666D02*
X188247380Y-88219047D01*
X188247380Y-88219047D02*
X188295000Y-88171428D01*
X188295000Y-88171428D02*
X188342619Y-88076190D01*
X188342619Y-88076190D02*
X188342619Y-87838095D01*
X188342619Y-87838095D02*
X188295000Y-87695238D01*
X186008333Y-98485714D02*
X186008333Y-98009524D01*
X185722619Y-98580952D02*
X186722619Y-98247619D01*
X186722619Y-98247619D02*
X185722619Y-97914286D01*
X185722619Y-97152381D02*
X186722619Y-97152381D01*
X185770238Y-97152381D02*
X185722619Y-97247619D01*
X185722619Y-97247619D02*
X185722619Y-97438095D01*
X185722619Y-97438095D02*
X185770238Y-97533333D01*
X185770238Y-97533333D02*
X185817857Y-97580952D01*
X185817857Y-97580952D02*
X185913095Y-97628571D01*
X185913095Y-97628571D02*
X186198809Y-97628571D01*
X186198809Y-97628571D02*
X186294047Y-97580952D01*
X186294047Y-97580952D02*
X186341666Y-97533333D01*
X186341666Y-97533333D02*
X186389285Y-97438095D01*
X186389285Y-97438095D02*
X186389285Y-97247619D01*
X186389285Y-97247619D02*
X186341666Y-97152381D01*
X185722619Y-96247619D02*
X186246428Y-96247619D01*
X186246428Y-96247619D02*
X186341666Y-96295238D01*
X186341666Y-96295238D02*
X186389285Y-96390476D01*
X186389285Y-96390476D02*
X186389285Y-96580952D01*
X186389285Y-96580952D02*
X186341666Y-96676190D01*
X185770238Y-96247619D02*
X185722619Y-96342857D01*
X185722619Y-96342857D02*
X185722619Y-96580952D01*
X185722619Y-96580952D02*
X185770238Y-96676190D01*
X185770238Y-96676190D02*
X185865476Y-96723809D01*
X185865476Y-96723809D02*
X185960714Y-96723809D01*
X185960714Y-96723809D02*
X186055952Y-96676190D01*
X186055952Y-96676190D02*
X186103571Y-96580952D01*
X186103571Y-96580952D02*
X186103571Y-96342857D01*
X186103571Y-96342857D02*
X186151190Y-96247619D01*
X186389285Y-95771428D02*
X185389285Y-95771428D01*
X186341666Y-95771428D02*
X186389285Y-95676190D01*
X186389285Y-95676190D02*
X186389285Y-95485714D01*
X186389285Y-95485714D02*
X186341666Y-95390476D01*
X186341666Y-95390476D02*
X186294047Y-95342857D01*
X186294047Y-95342857D02*
X186198809Y-95295238D01*
X186198809Y-95295238D02*
X185913095Y-95295238D01*
X185913095Y-95295238D02*
X185817857Y-95342857D01*
X185817857Y-95342857D02*
X185770238Y-95390476D01*
X185770238Y-95390476D02*
X185722619Y-95485714D01*
X185722619Y-95485714D02*
X185722619Y-95676190D01*
X185722619Y-95676190D02*
X185770238Y-95771428D01*
X186389285Y-95009523D02*
X186389285Y-94628571D01*
X186722619Y-94866666D02*
X185865476Y-94866666D01*
X185865476Y-94866666D02*
X185770238Y-94819047D01*
X185770238Y-94819047D02*
X185722619Y-94723809D01*
X185722619Y-94723809D02*
X185722619Y-94628571D01*
X185770238Y-93914285D02*
X185722619Y-94009523D01*
X185722619Y-94009523D02*
X185722619Y-94199999D01*
X185722619Y-94199999D02*
X185770238Y-94295237D01*
X185770238Y-94295237D02*
X185865476Y-94342856D01*
X185865476Y-94342856D02*
X186246428Y-94342856D01*
X186246428Y-94342856D02*
X186341666Y-94295237D01*
X186341666Y-94295237D02*
X186389285Y-94199999D01*
X186389285Y-94199999D02*
X186389285Y-94009523D01*
X186389285Y-94009523D02*
X186341666Y-93914285D01*
X186341666Y-93914285D02*
X186246428Y-93866666D01*
X186246428Y-93866666D02*
X186151190Y-93866666D01*
X186151190Y-93866666D02*
X186055952Y-94342856D01*
X185722619Y-93438094D02*
X186389285Y-93438094D01*
X186198809Y-93438094D02*
X186294047Y-93390475D01*
X186294047Y-93390475D02*
X186341666Y-93342856D01*
X186341666Y-93342856D02*
X186389285Y-93247618D01*
X186389285Y-93247618D02*
X186389285Y-93152380D01*
X186246428Y-91885713D02*
X186198809Y-91742856D01*
X186198809Y-91742856D02*
X186151190Y-91695237D01*
X186151190Y-91695237D02*
X186055952Y-91647618D01*
X186055952Y-91647618D02*
X185913095Y-91647618D01*
X185913095Y-91647618D02*
X185817857Y-91695237D01*
X185817857Y-91695237D02*
X185770238Y-91742856D01*
X185770238Y-91742856D02*
X185722619Y-91838094D01*
X185722619Y-91838094D02*
X185722619Y-92219046D01*
X185722619Y-92219046D02*
X186722619Y-92219046D01*
X186722619Y-92219046D02*
X186722619Y-91885713D01*
X186722619Y-91885713D02*
X186675000Y-91790475D01*
X186675000Y-91790475D02*
X186627380Y-91742856D01*
X186627380Y-91742856D02*
X186532142Y-91695237D01*
X186532142Y-91695237D02*
X186436904Y-91695237D01*
X186436904Y-91695237D02*
X186341666Y-91742856D01*
X186341666Y-91742856D02*
X186294047Y-91790475D01*
X186294047Y-91790475D02*
X186246428Y-91885713D01*
X186246428Y-91885713D02*
X186246428Y-92219046D01*
X185722619Y-91076189D02*
X185770238Y-91171427D01*
X185770238Y-91171427D02*
X185817857Y-91219046D01*
X185817857Y-91219046D02*
X185913095Y-91266665D01*
X185913095Y-91266665D02*
X186198809Y-91266665D01*
X186198809Y-91266665D02*
X186294047Y-91219046D01*
X186294047Y-91219046D02*
X186341666Y-91171427D01*
X186341666Y-91171427D02*
X186389285Y-91076189D01*
X186389285Y-91076189D02*
X186389285Y-90933332D01*
X186389285Y-90933332D02*
X186341666Y-90838094D01*
X186341666Y-90838094D02*
X186294047Y-90790475D01*
X186294047Y-90790475D02*
X186198809Y-90742856D01*
X186198809Y-90742856D02*
X185913095Y-90742856D01*
X185913095Y-90742856D02*
X185817857Y-90790475D01*
X185817857Y-90790475D02*
X185770238Y-90838094D01*
X185770238Y-90838094D02*
X185722619Y-90933332D01*
X185722619Y-90933332D02*
X185722619Y-91076189D01*
X185722619Y-89885713D02*
X186246428Y-89885713D01*
X186246428Y-89885713D02*
X186341666Y-89933332D01*
X186341666Y-89933332D02*
X186389285Y-90028570D01*
X186389285Y-90028570D02*
X186389285Y-90219046D01*
X186389285Y-90219046D02*
X186341666Y-90314284D01*
X185770238Y-89885713D02*
X185722619Y-89980951D01*
X185722619Y-89980951D02*
X185722619Y-90219046D01*
X185722619Y-90219046D02*
X185770238Y-90314284D01*
X185770238Y-90314284D02*
X185865476Y-90361903D01*
X185865476Y-90361903D02*
X185960714Y-90361903D01*
X185960714Y-90361903D02*
X186055952Y-90314284D01*
X186055952Y-90314284D02*
X186103571Y-90219046D01*
X186103571Y-90219046D02*
X186103571Y-89980951D01*
X186103571Y-89980951D02*
X186151190Y-89885713D01*
X185722619Y-89409522D02*
X186389285Y-89409522D01*
X186198809Y-89409522D02*
X186294047Y-89361903D01*
X186294047Y-89361903D02*
X186341666Y-89314284D01*
X186341666Y-89314284D02*
X186389285Y-89219046D01*
X186389285Y-89219046D02*
X186389285Y-89123808D01*
X185722619Y-88361903D02*
X186722619Y-88361903D01*
X185770238Y-88361903D02*
X185722619Y-88457141D01*
X185722619Y-88457141D02*
X185722619Y-88647617D01*
X185722619Y-88647617D02*
X185770238Y-88742855D01*
X185770238Y-88742855D02*
X185817857Y-88790474D01*
X185817857Y-88790474D02*
X185913095Y-88838093D01*
X185913095Y-88838093D02*
X186198809Y-88838093D01*
X186198809Y-88838093D02*
X186294047Y-88790474D01*
X186294047Y-88790474D02*
X186341666Y-88742855D01*
X186341666Y-88742855D02*
X186389285Y-88647617D01*
X186389285Y-88647617D02*
X186389285Y-88457141D01*
X186389285Y-88457141D02*
X186341666Y-88361903D01*
D11*
X185587428Y-85890476D02*
X185054095Y-85700000D01*
X185054095Y-85700000D02*
X185587428Y-85509523D01*
X185054095Y-84785714D02*
X185054095Y-85242857D01*
X185054095Y-85014285D02*
X185854095Y-85014285D01*
X185854095Y-85014285D02*
X185739809Y-85090476D01*
X185739809Y-85090476D02*
X185663619Y-85166666D01*
X185663619Y-85166666D02*
X185625523Y-85242857D01*
X185092190Y-84480952D02*
X185054095Y-84404761D01*
X185054095Y-84404761D02*
X185054095Y-84252380D01*
X185054095Y-84252380D02*
X185092190Y-84176190D01*
X185092190Y-84176190D02*
X185168380Y-84138094D01*
X185168380Y-84138094D02*
X185206476Y-84138094D01*
X185206476Y-84138094D02*
X185282666Y-84176190D01*
X185282666Y-84176190D02*
X185320761Y-84252380D01*
X185320761Y-84252380D02*
X185320761Y-84366666D01*
X185320761Y-84366666D02*
X185358857Y-84442856D01*
X185358857Y-84442856D02*
X185435047Y-84480952D01*
X185435047Y-84480952D02*
X185473142Y-84480952D01*
X185473142Y-84480952D02*
X185549333Y-84442856D01*
X185549333Y-84442856D02*
X185587428Y-84366666D01*
X185587428Y-84366666D02*
X185587428Y-84252380D01*
X185587428Y-84252380D02*
X185549333Y-84176190D01*
X185054095Y-83795237D02*
X185587428Y-83795237D01*
X185511238Y-83795237D02*
X185549333Y-83757142D01*
X185549333Y-83757142D02*
X185587428Y-83680952D01*
X185587428Y-83680952D02*
X185587428Y-83566666D01*
X185587428Y-83566666D02*
X185549333Y-83490475D01*
X185549333Y-83490475D02*
X185473142Y-83452380D01*
X185473142Y-83452380D02*
X185054095Y-83452380D01*
X185473142Y-83452380D02*
X185549333Y-83414285D01*
X185549333Y-83414285D02*
X185587428Y-83338094D01*
X185587428Y-83338094D02*
X185587428Y-83223809D01*
X185587428Y-83223809D02*
X185549333Y-83147618D01*
X185549333Y-83147618D02*
X185473142Y-83109523D01*
X185473142Y-83109523D02*
X185054095Y-83109523D01*
X185054095Y-82385713D02*
X185854095Y-82385713D01*
X185092190Y-82385713D02*
X185054095Y-82461904D01*
X185054095Y-82461904D02*
X185054095Y-82614285D01*
X185054095Y-82614285D02*
X185092190Y-82690475D01*
X185092190Y-82690475D02*
X185130285Y-82728570D01*
X185130285Y-82728570D02*
X185206476Y-82766666D01*
X185206476Y-82766666D02*
X185435047Y-82766666D01*
X185435047Y-82766666D02*
X185511238Y-82728570D01*
X185511238Y-82728570D02*
X185549333Y-82690475D01*
X185549333Y-82690475D02*
X185587428Y-82614285D01*
X185587428Y-82614285D02*
X185587428Y-82461904D01*
X185587428Y-82461904D02*
X185549333Y-82385713D01*
X183758095Y-86187619D02*
X184558095Y-86187619D01*
X184253333Y-86187619D02*
X184291428Y-86111429D01*
X184291428Y-86111429D02*
X184291428Y-85959048D01*
X184291428Y-85959048D02*
X184253333Y-85882857D01*
X184253333Y-85882857D02*
X184215238Y-85844762D01*
X184215238Y-85844762D02*
X184139047Y-85806667D01*
X184139047Y-85806667D02*
X183910476Y-85806667D01*
X183910476Y-85806667D02*
X183834285Y-85844762D01*
X183834285Y-85844762D02*
X183796190Y-85882857D01*
X183796190Y-85882857D02*
X183758095Y-85959048D01*
X183758095Y-85959048D02*
X183758095Y-86111429D01*
X183758095Y-86111429D02*
X183796190Y-86187619D01*
X184291428Y-85540000D02*
X183758095Y-85349524D01*
X184291428Y-85159047D02*
X183758095Y-85349524D01*
X183758095Y-85349524D02*
X183567619Y-85425714D01*
X183567619Y-85425714D02*
X183529523Y-85463809D01*
X183529523Y-85463809D02*
X183491428Y-85540000D01*
X183986666Y-84412381D02*
X183986666Y-84031428D01*
X183758095Y-84488571D02*
X184558095Y-84221904D01*
X184558095Y-84221904D02*
X183758095Y-83955238D01*
X184291428Y-83688571D02*
X183758095Y-83688571D01*
X184215238Y-83688571D02*
X184253333Y-83650476D01*
X184253333Y-83650476D02*
X184291428Y-83574286D01*
X184291428Y-83574286D02*
X184291428Y-83460000D01*
X184291428Y-83460000D02*
X184253333Y-83383809D01*
X184253333Y-83383809D02*
X184177142Y-83345714D01*
X184177142Y-83345714D02*
X183758095Y-83345714D01*
X183758095Y-82621904D02*
X184558095Y-82621904D01*
X183796190Y-82621904D02*
X183758095Y-82698095D01*
X183758095Y-82698095D02*
X183758095Y-82850476D01*
X183758095Y-82850476D02*
X183796190Y-82926666D01*
X183796190Y-82926666D02*
X183834285Y-82964761D01*
X183834285Y-82964761D02*
X183910476Y-83002857D01*
X183910476Y-83002857D02*
X184139047Y-83002857D01*
X184139047Y-83002857D02*
X184215238Y-82964761D01*
X184215238Y-82964761D02*
X184253333Y-82926666D01*
X184253333Y-82926666D02*
X184291428Y-82850476D01*
X184291428Y-82850476D02*
X184291428Y-82698095D01*
X184291428Y-82698095D02*
X184253333Y-82621904D01*
X184291428Y-82317142D02*
X183758095Y-82126666D01*
X184291428Y-81936189D02*
X183758095Y-82126666D01*
X183758095Y-82126666D02*
X183567619Y-82202856D01*
X183567619Y-82202856D02*
X183529523Y-82240951D01*
X183529523Y-82240951D02*
X183491428Y-82317142D01*
M02*
