G04 #@! TF.GenerationSoftware,KiCad,Pcbnew,(7.0.0)*
G04 #@! TF.CreationDate,2023-02-28T22:51:40+01:00*
G04 #@! TF.ProjectId,N64-DENC-NUS-Adapter-SMD,4e36342d-4445-44e4-932d-4e55532d4164,rev?*
G04 #@! TF.SameCoordinates,Original*
G04 #@! TF.FileFunction,Legend,Top*
G04 #@! TF.FilePolarity,Positive*
%FSLAX46Y46*%
G04 Gerber Fmt 4.6, Leading zero omitted, Abs format (unit mm)*
G04 Created by KiCad (PCBNEW (7.0.0)) date 2023-02-28 22:51:40*
%MOMM*%
%LPD*%
G01*
G04 APERTURE LIST*
%ADD10C,0.130000*%
%ADD11C,0.120000*%
%ADD12C,0.010000*%
G04 APERTURE END LIST*
D10*
X187516668Y-82223500D02*
X187516668Y-82790166D01*
X187516668Y-82790166D02*
X187483335Y-82856833D01*
X187483335Y-82856833D02*
X187450002Y-82890166D01*
X187450002Y-82890166D02*
X187383335Y-82923500D01*
X187383335Y-82923500D02*
X187283335Y-82923500D01*
X187283335Y-82923500D02*
X187216668Y-82890166D01*
X187516668Y-82656833D02*
X187450002Y-82690166D01*
X187450002Y-82690166D02*
X187316668Y-82690166D01*
X187316668Y-82690166D02*
X187250002Y-82656833D01*
X187250002Y-82656833D02*
X187216668Y-82623500D01*
X187216668Y-82623500D02*
X187183335Y-82556833D01*
X187183335Y-82556833D02*
X187183335Y-82356833D01*
X187183335Y-82356833D02*
X187216668Y-82290166D01*
X187216668Y-82290166D02*
X187250002Y-82256833D01*
X187250002Y-82256833D02*
X187316668Y-82223500D01*
X187316668Y-82223500D02*
X187450002Y-82223500D01*
X187450002Y-82223500D02*
X187516668Y-82256833D01*
X187850001Y-82690166D02*
X187850001Y-82223500D01*
X187850001Y-81990166D02*
X187816668Y-82023500D01*
X187816668Y-82023500D02*
X187850001Y-82056833D01*
X187850001Y-82056833D02*
X187883335Y-82023500D01*
X187883335Y-82023500D02*
X187850001Y-81990166D01*
X187850001Y-81990166D02*
X187850001Y-82056833D01*
X188083334Y-82223500D02*
X188350001Y-82223500D01*
X188183334Y-81990166D02*
X188183334Y-82590166D01*
X188183334Y-82590166D02*
X188216668Y-82656833D01*
X188216668Y-82656833D02*
X188283334Y-82690166D01*
X188283334Y-82690166D02*
X188350001Y-82690166D01*
X188583334Y-82690166D02*
X188583334Y-81990166D01*
X188883334Y-82690166D02*
X188883334Y-82323500D01*
X188883334Y-82323500D02*
X188850001Y-82256833D01*
X188850001Y-82256833D02*
X188783334Y-82223500D01*
X188783334Y-82223500D02*
X188683334Y-82223500D01*
X188683334Y-82223500D02*
X188616668Y-82256833D01*
X188616668Y-82256833D02*
X188583334Y-82290166D01*
X189516667Y-82223500D02*
X189516667Y-82690166D01*
X189216667Y-82223500D02*
X189216667Y-82590166D01*
X189216667Y-82590166D02*
X189250001Y-82656833D01*
X189250001Y-82656833D02*
X189316667Y-82690166D01*
X189316667Y-82690166D02*
X189416667Y-82690166D01*
X189416667Y-82690166D02*
X189483334Y-82656833D01*
X189483334Y-82656833D02*
X189516667Y-82623500D01*
X189850000Y-82690166D02*
X189850000Y-81990166D01*
X189850000Y-82256833D02*
X189916667Y-82223500D01*
X189916667Y-82223500D02*
X190050000Y-82223500D01*
X190050000Y-82223500D02*
X190116667Y-82256833D01*
X190116667Y-82256833D02*
X190150000Y-82290166D01*
X190150000Y-82290166D02*
X190183334Y-82356833D01*
X190183334Y-82356833D02*
X190183334Y-82556833D01*
X190183334Y-82556833D02*
X190150000Y-82623500D01*
X190150000Y-82623500D02*
X190116667Y-82656833D01*
X190116667Y-82656833D02*
X190050000Y-82690166D01*
X190050000Y-82690166D02*
X189916667Y-82690166D01*
X189916667Y-82690166D02*
X189850000Y-82656833D01*
X190483333Y-82623500D02*
X190516667Y-82656833D01*
X190516667Y-82656833D02*
X190483333Y-82690166D01*
X190483333Y-82690166D02*
X190450000Y-82656833D01*
X190450000Y-82656833D02*
X190483333Y-82623500D01*
X190483333Y-82623500D02*
X190483333Y-82690166D01*
X191116666Y-82656833D02*
X191050000Y-82690166D01*
X191050000Y-82690166D02*
X190916666Y-82690166D01*
X190916666Y-82690166D02*
X190850000Y-82656833D01*
X190850000Y-82656833D02*
X190816666Y-82623500D01*
X190816666Y-82623500D02*
X190783333Y-82556833D01*
X190783333Y-82556833D02*
X190783333Y-82356833D01*
X190783333Y-82356833D02*
X190816666Y-82290166D01*
X190816666Y-82290166D02*
X190850000Y-82256833D01*
X190850000Y-82256833D02*
X190916666Y-82223500D01*
X190916666Y-82223500D02*
X191050000Y-82223500D01*
X191050000Y-82223500D02*
X191116666Y-82256833D01*
X191516666Y-82690166D02*
X191450000Y-82656833D01*
X191450000Y-82656833D02*
X191416666Y-82623500D01*
X191416666Y-82623500D02*
X191383333Y-82556833D01*
X191383333Y-82556833D02*
X191383333Y-82356833D01*
X191383333Y-82356833D02*
X191416666Y-82290166D01*
X191416666Y-82290166D02*
X191450000Y-82256833D01*
X191450000Y-82256833D02*
X191516666Y-82223500D01*
X191516666Y-82223500D02*
X191616666Y-82223500D01*
X191616666Y-82223500D02*
X191683333Y-82256833D01*
X191683333Y-82256833D02*
X191716666Y-82290166D01*
X191716666Y-82290166D02*
X191750000Y-82356833D01*
X191750000Y-82356833D02*
X191750000Y-82556833D01*
X191750000Y-82556833D02*
X191716666Y-82623500D01*
X191716666Y-82623500D02*
X191683333Y-82656833D01*
X191683333Y-82656833D02*
X191616666Y-82690166D01*
X191616666Y-82690166D02*
X191516666Y-82690166D01*
X192049999Y-82690166D02*
X192049999Y-82223500D01*
X192049999Y-82290166D02*
X192083333Y-82256833D01*
X192083333Y-82256833D02*
X192149999Y-82223500D01*
X192149999Y-82223500D02*
X192249999Y-82223500D01*
X192249999Y-82223500D02*
X192316666Y-82256833D01*
X192316666Y-82256833D02*
X192349999Y-82323500D01*
X192349999Y-82323500D02*
X192349999Y-82690166D01*
X192349999Y-82323500D02*
X192383333Y-82256833D01*
X192383333Y-82256833D02*
X192449999Y-82223500D01*
X192449999Y-82223500D02*
X192549999Y-82223500D01*
X192549999Y-82223500D02*
X192616666Y-82256833D01*
X192616666Y-82256833D02*
X192649999Y-82323500D01*
X192649999Y-82323500D02*
X192649999Y-82690166D01*
X193483332Y-81956833D02*
X192883332Y-82856833D01*
X188400000Y-83790833D02*
X188333333Y-83824166D01*
X188333333Y-83824166D02*
X188200000Y-83824166D01*
X188200000Y-83824166D02*
X188133333Y-83790833D01*
X188133333Y-83790833D02*
X188100000Y-83724166D01*
X188100000Y-83724166D02*
X188100000Y-83457500D01*
X188100000Y-83457500D02*
X188133333Y-83390833D01*
X188133333Y-83390833D02*
X188200000Y-83357500D01*
X188200000Y-83357500D02*
X188333333Y-83357500D01*
X188333333Y-83357500D02*
X188400000Y-83390833D01*
X188400000Y-83390833D02*
X188433333Y-83457500D01*
X188433333Y-83457500D02*
X188433333Y-83524166D01*
X188433333Y-83524166D02*
X188100000Y-83590833D01*
X188666667Y-83357500D02*
X189033333Y-83357500D01*
X189033333Y-83357500D02*
X188666667Y-83824166D01*
X188666667Y-83824166D02*
X189033333Y-83824166D01*
X189600000Y-83790833D02*
X189533334Y-83824166D01*
X189533334Y-83824166D02*
X189400000Y-83824166D01*
X189400000Y-83824166D02*
X189333334Y-83790833D01*
X189333334Y-83790833D02*
X189300000Y-83757500D01*
X189300000Y-83757500D02*
X189266667Y-83690833D01*
X189266667Y-83690833D02*
X189266667Y-83490833D01*
X189266667Y-83490833D02*
X189300000Y-83424166D01*
X189300000Y-83424166D02*
X189333334Y-83390833D01*
X189333334Y-83390833D02*
X189400000Y-83357500D01*
X189400000Y-83357500D02*
X189533334Y-83357500D01*
X189533334Y-83357500D02*
X189600000Y-83390833D01*
X190266667Y-83157500D02*
X190200000Y-83124166D01*
X190200000Y-83124166D02*
X190100000Y-83124166D01*
X190100000Y-83124166D02*
X190000000Y-83157500D01*
X190000000Y-83157500D02*
X189933334Y-83224166D01*
X189933334Y-83224166D02*
X189900000Y-83290833D01*
X189900000Y-83290833D02*
X189866667Y-83424166D01*
X189866667Y-83424166D02*
X189866667Y-83524166D01*
X189866667Y-83524166D02*
X189900000Y-83657500D01*
X189900000Y-83657500D02*
X189933334Y-83724166D01*
X189933334Y-83724166D02*
X190000000Y-83790833D01*
X190000000Y-83790833D02*
X190100000Y-83824166D01*
X190100000Y-83824166D02*
X190166667Y-83824166D01*
X190166667Y-83824166D02*
X190266667Y-83790833D01*
X190266667Y-83790833D02*
X190300000Y-83757500D01*
X190300000Y-83757500D02*
X190300000Y-83524166D01*
X190300000Y-83524166D02*
X190166667Y-83524166D01*
X190600000Y-83824166D02*
X190600000Y-83357500D01*
X190600000Y-83424166D02*
X190633334Y-83390833D01*
X190633334Y-83390833D02*
X190700000Y-83357500D01*
X190700000Y-83357500D02*
X190800000Y-83357500D01*
X190800000Y-83357500D02*
X190866667Y-83390833D01*
X190866667Y-83390833D02*
X190900000Y-83457500D01*
X190900000Y-83457500D02*
X190900000Y-83824166D01*
X190900000Y-83457500D02*
X190933334Y-83390833D01*
X190933334Y-83390833D02*
X191000000Y-83357500D01*
X191000000Y-83357500D02*
X191100000Y-83357500D01*
X191100000Y-83357500D02*
X191166667Y-83390833D01*
X191166667Y-83390833D02*
X191200000Y-83457500D01*
X191200000Y-83457500D02*
X191200000Y-83824166D01*
X191833333Y-83824166D02*
X191833333Y-83457500D01*
X191833333Y-83457500D02*
X191800000Y-83390833D01*
X191800000Y-83390833D02*
X191733333Y-83357500D01*
X191733333Y-83357500D02*
X191600000Y-83357500D01*
X191600000Y-83357500D02*
X191533333Y-83390833D01*
X191833333Y-83790833D02*
X191766667Y-83824166D01*
X191766667Y-83824166D02*
X191600000Y-83824166D01*
X191600000Y-83824166D02*
X191533333Y-83790833D01*
X191533333Y-83790833D02*
X191500000Y-83724166D01*
X191500000Y-83724166D02*
X191500000Y-83657500D01*
X191500000Y-83657500D02*
X191533333Y-83590833D01*
X191533333Y-83590833D02*
X191600000Y-83557500D01*
X191600000Y-83557500D02*
X191766667Y-83557500D01*
X191766667Y-83557500D02*
X191833333Y-83524166D01*
X192166666Y-83357500D02*
X192166666Y-83824166D01*
X192166666Y-83424166D02*
X192200000Y-83390833D01*
X192200000Y-83390833D02*
X192266666Y-83357500D01*
X192266666Y-83357500D02*
X192366666Y-83357500D01*
X192366666Y-83357500D02*
X192433333Y-83390833D01*
X192433333Y-83390833D02*
X192466666Y-83457500D01*
X192466666Y-83457500D02*
X192466666Y-83824166D01*
D11*
X184100000Y-84157166D02*
X183700000Y-84157166D01*
X183900000Y-84157166D02*
X183900000Y-83457166D01*
X183900000Y-83457166D02*
X183833333Y-83557166D01*
X183833333Y-83557166D02*
X183766667Y-83623833D01*
X183766667Y-83623833D02*
X183700000Y-83657166D01*
X187300000Y-85523833D02*
X187333333Y-85490500D01*
X187333333Y-85490500D02*
X187400000Y-85457166D01*
X187400000Y-85457166D02*
X187566667Y-85457166D01*
X187566667Y-85457166D02*
X187633333Y-85490500D01*
X187633333Y-85490500D02*
X187666667Y-85523833D01*
X187666667Y-85523833D02*
X187700000Y-85590500D01*
X187700000Y-85590500D02*
X187700000Y-85657166D01*
X187700000Y-85657166D02*
X187666667Y-85757166D01*
X187666667Y-85757166D02*
X187266667Y-86157166D01*
X187266667Y-86157166D02*
X187700000Y-86157166D01*
X187466666Y-103857166D02*
X187066666Y-103857166D01*
X187266666Y-103857166D02*
X187266666Y-103157166D01*
X187266666Y-103157166D02*
X187199999Y-103257166D01*
X187199999Y-103257166D02*
X187133333Y-103323833D01*
X187133333Y-103323833D02*
X187066666Y-103357166D01*
X187733333Y-103223833D02*
X187766666Y-103190500D01*
X187766666Y-103190500D02*
X187833333Y-103157166D01*
X187833333Y-103157166D02*
X188000000Y-103157166D01*
X188000000Y-103157166D02*
X188066666Y-103190500D01*
X188066666Y-103190500D02*
X188100000Y-103223833D01*
X188100000Y-103223833D02*
X188133333Y-103290500D01*
X188133333Y-103290500D02*
X188133333Y-103357166D01*
X188133333Y-103357166D02*
X188100000Y-103457166D01*
X188100000Y-103457166D02*
X187700000Y-103857166D01*
X187700000Y-103857166D02*
X188133333Y-103857166D01*
G36*
X191230100Y-102396650D02*
G01*
X190995150Y-102396650D01*
X190995150Y-102161700D01*
X191230100Y-102161700D01*
X191230100Y-102396650D01*
G37*
D12*
X191230100Y-102396650D02*
X190995150Y-102396650D01*
X190995150Y-102161700D01*
X191230100Y-102161700D01*
X191230100Y-102396650D01*
G36*
X191230100Y-105451000D02*
G01*
X190760200Y-105451000D01*
X190760200Y-105216050D01*
X191230100Y-105216050D01*
X191230100Y-105451000D01*
G37*
X191230100Y-105451000D02*
X190760200Y-105451000D01*
X190760200Y-105216050D01*
X191230100Y-105216050D01*
X191230100Y-105451000D01*
G36*
X192169900Y-102161700D02*
G01*
X191230100Y-102161700D01*
X191230100Y-101926750D01*
X192169900Y-101926750D01*
X192169900Y-102161700D01*
G37*
X192169900Y-102161700D02*
X191230100Y-102161700D01*
X191230100Y-101926750D01*
X192169900Y-101926750D01*
X192169900Y-102161700D01*
G36*
X192169900Y-105685950D02*
G01*
X191230100Y-105685950D01*
X191230100Y-105451000D01*
X192169900Y-105451000D01*
X192169900Y-105685950D01*
G37*
X192169900Y-105685950D02*
X191230100Y-105685950D01*
X191230100Y-105451000D01*
X192169900Y-105451000D01*
X192169900Y-105685950D01*
G36*
X193109700Y-103571400D02*
G01*
X192874750Y-103571400D01*
X192874750Y-103101500D01*
X193109700Y-103101500D01*
X193109700Y-103571400D01*
G37*
X193109700Y-103571400D02*
X192874750Y-103571400D01*
X192874750Y-103101500D01*
X193109700Y-103101500D01*
X193109700Y-103571400D01*
G36*
X190995150Y-102631600D02*
G01*
X191230100Y-102631600D01*
X191230100Y-103336450D01*
X190995150Y-103336450D01*
X190995150Y-103571400D01*
X190290300Y-103571400D01*
X190290300Y-103101500D01*
X190525250Y-103101500D01*
X190525250Y-102631600D01*
X190760200Y-102631600D01*
X190760200Y-102396650D01*
X190995150Y-102396650D01*
X190995150Y-102631600D01*
G37*
X190995150Y-102631600D02*
X191230100Y-102631600D01*
X191230100Y-103336450D01*
X190995150Y-103336450D01*
X190995150Y-103571400D01*
X190290300Y-103571400D01*
X190290300Y-103101500D01*
X190525250Y-103101500D01*
X190525250Y-102631600D01*
X190760200Y-102631600D01*
X190760200Y-102396650D01*
X190995150Y-102396650D01*
X190995150Y-102631600D01*
G36*
X192169900Y-103806350D02*
G01*
X192404850Y-103806350D01*
X192404850Y-104511200D01*
X192169900Y-104511200D01*
X192169900Y-104746150D01*
X191465050Y-104746150D01*
X191465050Y-104511200D01*
X191230100Y-104511200D01*
X191230100Y-103806350D01*
X191465050Y-103806350D01*
X191465050Y-103571400D01*
X192169900Y-103571400D01*
X192169900Y-103806350D01*
G37*
X192169900Y-103806350D02*
X192404850Y-103806350D01*
X192404850Y-104511200D01*
X192169900Y-104511200D01*
X192169900Y-104746150D01*
X191465050Y-104746150D01*
X191465050Y-104511200D01*
X191230100Y-104511200D01*
X191230100Y-103806350D01*
X191465050Y-103806350D01*
X191465050Y-103571400D01*
X192169900Y-103571400D01*
X192169900Y-103806350D01*
G36*
X190290300Y-104041300D02*
G01*
X190760200Y-104041300D01*
X190760200Y-104276250D01*
X190995150Y-104276250D01*
X190995150Y-104981100D01*
X190760200Y-104981100D01*
X190760200Y-105216050D01*
X190525250Y-105216050D01*
X190525250Y-104981100D01*
X190290300Y-104981100D01*
X190290300Y-104511200D01*
X190055350Y-104511200D01*
X190055350Y-103571400D01*
X190290300Y-103571400D01*
X190290300Y-104041300D01*
G37*
X190290300Y-104041300D02*
X190760200Y-104041300D01*
X190760200Y-104276250D01*
X190995150Y-104276250D01*
X190995150Y-104981100D01*
X190760200Y-104981100D01*
X190760200Y-105216050D01*
X190525250Y-105216050D01*
X190525250Y-104981100D01*
X190290300Y-104981100D01*
X190290300Y-104511200D01*
X190055350Y-104511200D01*
X190055350Y-103571400D01*
X190290300Y-103571400D01*
X190290300Y-104041300D01*
G36*
X192404850Y-102396650D02*
G01*
X192639800Y-102396650D01*
X192639800Y-102631600D01*
X192874750Y-102631600D01*
X192874750Y-103101500D01*
X192639800Y-103101500D01*
X192639800Y-103336450D01*
X192169900Y-103336450D01*
X192169900Y-103101500D01*
X191934950Y-103101500D01*
X191934950Y-102396650D01*
X192169900Y-102396650D01*
X192169900Y-102161700D01*
X192404850Y-102161700D01*
X192404850Y-102396650D01*
G37*
X192404850Y-102396650D02*
X192639800Y-102396650D01*
X192639800Y-102631600D01*
X192874750Y-102631600D01*
X192874750Y-103101500D01*
X192639800Y-103101500D01*
X192639800Y-103336450D01*
X192169900Y-103336450D01*
X192169900Y-103101500D01*
X191934950Y-103101500D01*
X191934950Y-102396650D01*
X192169900Y-102396650D01*
X192169900Y-102161700D01*
X192404850Y-102161700D01*
X192404850Y-102396650D01*
G36*
X193344650Y-104511200D02*
G01*
X193109700Y-104511200D01*
X193109700Y-104981100D01*
X192874750Y-104981100D01*
X192874750Y-105216050D01*
X192639800Y-105216050D01*
X192639800Y-105451000D01*
X192169900Y-105451000D01*
X192169900Y-105216050D01*
X192404850Y-105216050D01*
X192404850Y-104511200D01*
X192639800Y-104511200D01*
X192639800Y-104276250D01*
X193109700Y-104276250D01*
X193109700Y-103571400D01*
X193344650Y-103571400D01*
X193344650Y-104511200D01*
G37*
X193344650Y-104511200D02*
X193109700Y-104511200D01*
X193109700Y-104981100D01*
X192874750Y-104981100D01*
X192874750Y-105216050D01*
X192639800Y-105216050D01*
X192639800Y-105451000D01*
X192169900Y-105451000D01*
X192169900Y-105216050D01*
X192404850Y-105216050D01*
X192404850Y-104511200D01*
X192639800Y-104511200D01*
X192639800Y-104276250D01*
X193109700Y-104276250D01*
X193109700Y-103571400D01*
X193344650Y-103571400D01*
X193344650Y-104511200D01*
D11*
X184640000Y-81640000D02*
X184640000Y-82015000D01*
X184640000Y-81640000D02*
X186760000Y-81640000D01*
X184640000Y-82015000D02*
X183410000Y-82015000D01*
X184640000Y-83385000D02*
X184640000Y-86015000D01*
X184640000Y-87385000D02*
X184640000Y-90015000D01*
X184640000Y-91385000D02*
X184640000Y-94015000D01*
X184640000Y-95385000D02*
X184640000Y-98015000D01*
X184640000Y-99385000D02*
X184640000Y-102015000D01*
X184640000Y-103385000D02*
X184640000Y-105760000D01*
X184640000Y-105760000D02*
X186760000Y-105760000D01*
X186760000Y-81640000D02*
X186760000Y-84015000D01*
X186760000Y-85385000D02*
X186760000Y-88015000D01*
X186760000Y-89385000D02*
X186760000Y-92015000D01*
X186760000Y-93385000D02*
X186760000Y-96015000D01*
X186760000Y-97385000D02*
X186760000Y-100015000D01*
X186760000Y-101385000D02*
X186760000Y-104015000D01*
X186760000Y-105385000D02*
X186760000Y-105760000D01*
M02*
