%TF.GenerationSoftware,KiCad,Pcbnew,(7.0.0)*%
%TF.CreationDate,2023-02-28T22:37:36+01:00*%
%TF.ProjectId,N64-DENC-NUS-Adapter-SMD,4e36342d-4445-44e4-932d-4e55532d4164,rev?*%
%TF.SameCoordinates,Original*%
%TF.FileFunction,Drillmap*%
%TF.FilePolarity,Positive*%
%FSLAX45Y45*%
G04 Gerber Fmt 4.5, Leading zero omitted, Abs format (unit mm)*
G04 Created by KiCad (PCBNEW (7.0.0)) date 2023-02-28 22:37:36*
%MOMM*%
%LPD*%
G01*
G04 APERTURE LIST*
%ADD10C,0.100000*%
%ADD11C,0.200000*%
G04 APERTURE END LIST*
D10*
X19300000Y-10610000D02*
G75*
G03*
X19400000Y-10510000I0J100000D01*
G01*
X18300000Y-10510000D02*
X18300000Y-8230000D01*
X18300000Y-10510000D02*
G75*
G03*
X18400000Y-10610000I100000J0D01*
G01*
X19100000Y-8520000D02*
X19100000Y-10155000D01*
X19100000Y-8520000D02*
X19300000Y-8520000D01*
X19400000Y-10255000D02*
X19400000Y-10510000D01*
X19400000Y-8230000D02*
X19400000Y-8420000D01*
X19300000Y-8520000D02*
G75*
G03*
X19400000Y-8420000I0J100000D01*
G01*
X19300000Y-10155000D02*
X19100000Y-10155000D01*
X19400000Y-8230000D02*
G75*
G03*
X19300000Y-8130000I-100000J0D01*
G01*
X18400000Y-8130000D02*
G75*
G03*
X18300000Y-8230000I0J-100000D01*
G01*
X18400000Y-8130000D02*
X19300000Y-8130000D01*
X19300000Y-10610000D02*
X18400000Y-10610000D01*
X19400000Y-10255000D02*
G75*
G03*
X19300000Y-10155000I-100000J0D01*
G01*
D11*
X18542619Y-10908476D02*
X18542619Y-10708476D01*
X18542619Y-10708476D02*
X18590238Y-10708476D01*
X18590238Y-10708476D02*
X18618810Y-10718000D01*
X18618810Y-10718000D02*
X18637857Y-10737048D01*
X18637857Y-10737048D02*
X18647381Y-10756095D01*
X18647381Y-10756095D02*
X18656905Y-10794190D01*
X18656905Y-10794190D02*
X18656905Y-10822762D01*
X18656905Y-10822762D02*
X18647381Y-10860857D01*
X18647381Y-10860857D02*
X18637857Y-10879905D01*
X18637857Y-10879905D02*
X18618810Y-10898952D01*
X18618810Y-10898952D02*
X18590238Y-10908476D01*
X18590238Y-10908476D02*
X18542619Y-10908476D01*
X18742619Y-10908476D02*
X18742619Y-10775143D01*
X18742619Y-10813238D02*
X18752143Y-10794190D01*
X18752143Y-10794190D02*
X18761667Y-10784667D01*
X18761667Y-10784667D02*
X18780714Y-10775143D01*
X18780714Y-10775143D02*
X18799762Y-10775143D01*
X18866429Y-10908476D02*
X18866429Y-10775143D01*
X18866429Y-10708476D02*
X18856905Y-10718000D01*
X18856905Y-10718000D02*
X18866429Y-10727524D01*
X18866429Y-10727524D02*
X18875952Y-10718000D01*
X18875952Y-10718000D02*
X18866429Y-10708476D01*
X18866429Y-10708476D02*
X18866429Y-10727524D01*
X18990238Y-10908476D02*
X18971190Y-10898952D01*
X18971190Y-10898952D02*
X18961667Y-10879905D01*
X18961667Y-10879905D02*
X18961667Y-10708476D01*
X19095000Y-10908476D02*
X19075952Y-10898952D01*
X19075952Y-10898952D02*
X19066429Y-10879905D01*
X19066429Y-10879905D02*
X19066429Y-10708476D01*
X19291190Y-10908476D02*
X19291190Y-10708476D01*
X19291190Y-10708476D02*
X19357857Y-10851333D01*
X19357857Y-10851333D02*
X19424524Y-10708476D01*
X19424524Y-10708476D02*
X19424524Y-10908476D01*
X19605476Y-10908476D02*
X19605476Y-10803714D01*
X19605476Y-10803714D02*
X19595952Y-10784667D01*
X19595952Y-10784667D02*
X19576905Y-10775143D01*
X19576905Y-10775143D02*
X19538809Y-10775143D01*
X19538809Y-10775143D02*
X19519762Y-10784667D01*
X19605476Y-10898952D02*
X19586429Y-10908476D01*
X19586429Y-10908476D02*
X19538809Y-10908476D01*
X19538809Y-10908476D02*
X19519762Y-10898952D01*
X19519762Y-10898952D02*
X19510238Y-10879905D01*
X19510238Y-10879905D02*
X19510238Y-10860857D01*
X19510238Y-10860857D02*
X19519762Y-10841810D01*
X19519762Y-10841810D02*
X19538809Y-10832286D01*
X19538809Y-10832286D02*
X19586429Y-10832286D01*
X19586429Y-10832286D02*
X19605476Y-10822762D01*
X19700714Y-10775143D02*
X19700714Y-10975143D01*
X19700714Y-10784667D02*
X19719762Y-10775143D01*
X19719762Y-10775143D02*
X19757857Y-10775143D01*
X19757857Y-10775143D02*
X19776905Y-10784667D01*
X19776905Y-10784667D02*
X19786429Y-10794190D01*
X19786429Y-10794190D02*
X19795952Y-10813238D01*
X19795952Y-10813238D02*
X19795952Y-10870381D01*
X19795952Y-10870381D02*
X19786429Y-10889429D01*
X19786429Y-10889429D02*
X19776905Y-10898952D01*
X19776905Y-10898952D02*
X19757857Y-10908476D01*
X19757857Y-10908476D02*
X19719762Y-10908476D01*
X19719762Y-10908476D02*
X19700714Y-10898952D01*
X19881667Y-10889429D02*
X19891190Y-10898952D01*
X19891190Y-10898952D02*
X19881667Y-10908476D01*
X19881667Y-10908476D02*
X19872143Y-10898952D01*
X19872143Y-10898952D02*
X19881667Y-10889429D01*
X19881667Y-10889429D02*
X19881667Y-10908476D01*
X19881667Y-10784667D02*
X19891190Y-10794190D01*
X19891190Y-10794190D02*
X19881667Y-10803714D01*
X19881667Y-10803714D02*
X19872143Y-10794190D01*
X19872143Y-10794190D02*
X19881667Y-10784667D01*
X19881667Y-10784667D02*
X19881667Y-10803714D01*
M02*
