G04 #@! TF.GenerationSoftware,KiCad,Pcbnew,(7.0.0)*
G04 #@! TF.CreationDate,2023-02-28T22:47:40+01:00*
G04 #@! TF.ProjectId,N64-DENC-NUS-Adapter-Castellated,4e36342d-4445-44e4-932d-4e55532d4164,rev?*
G04 #@! TF.SameCoordinates,Original*
G04 #@! TF.FileFunction,Copper,L1,Top*
G04 #@! TF.FilePolarity,Positive*
%FSLAX46Y46*%
G04 Gerber Fmt 4.6, Leading zero omitted, Abs format (unit mm)*
G04 Created by KiCad (PCBNEW (7.0.0)) date 2023-02-28 22:47:40*
%MOMM*%
%LPD*%
G01*
G04 APERTURE LIST*
G04 #@! TA.AperFunction,CastellatedPad*
%ADD10O,2.000000X1.000000*%
G04 #@! TD*
G04 #@! TA.AperFunction,CastellatedPad*
%ADD11O,2.000000X0.960000*%
G04 #@! TD*
G04 #@! TA.AperFunction,CastellatedPad*
%ADD12O,2.000000X0.990000*%
G04 #@! TD*
G04 #@! TA.AperFunction,CastellatedPad*
%ADD13O,2.000000X0.980000*%
G04 #@! TD*
G04 #@! TA.AperFunction,CastellatedPad*
%ADD14R,2.000000X1.000000*%
G04 #@! TD*
G04 #@! TA.AperFunction,SMDPad,CuDef*
%ADD15R,2.350000X0.850000*%
G04 #@! TD*
G04 #@! TA.AperFunction,Conductor*
%ADD16C,0.400000*%
G04 #@! TD*
G04 APERTURE END LIST*
D10*
X190499999Y-86399999D03*
X190499999Y-87669999D03*
D11*
X190499999Y-88919999D03*
D12*
X190499999Y-90204999D03*
D10*
X190499999Y-91479999D03*
X190499999Y-92749999D03*
D13*
X190499999Y-94009999D03*
D10*
X190499999Y-95289999D03*
X190499999Y-96559999D03*
D14*
X190499999Y-97829999D03*
D10*
X190499999Y-99099999D03*
D14*
X190499999Y-100369999D03*
D15*
X184524999Y-82699999D03*
X186874999Y-84699999D03*
X184524999Y-86699999D03*
X186874999Y-88699999D03*
X184524999Y-90699999D03*
X186874999Y-92699999D03*
X184524999Y-94699999D03*
X186874999Y-96699999D03*
X184524999Y-98699999D03*
X186874999Y-100699999D03*
X184524999Y-102699999D03*
X186874999Y-104699999D03*
D16*
X190214214Y-86400000D02*
X190799980Y-86400000D01*
X189200000Y-84365192D02*
X189200000Y-85385786D01*
X188241915Y-82992893D02*
X188907107Y-83658085D01*
X189492893Y-86092893D02*
X189507107Y-86107107D01*
X184500000Y-82700000D02*
X187534808Y-82700000D01*
X189507100Y-86107114D02*
G75*
G03*
X190214214Y-86400000I707100J707114D01*
G01*
X189200005Y-84365192D02*
G75*
G03*
X188907106Y-83658086I-1000005J-8D01*
G01*
X188241911Y-82992897D02*
G75*
G03*
X187534808Y-82700000I-707111J-707103D01*
G01*
X189200010Y-85385786D02*
G75*
G03*
X189492893Y-86092893I999990J-14D01*
G01*
X187167893Y-85667893D02*
X188877107Y-87377107D01*
X189584214Y-87670000D02*
X190799980Y-87670000D01*
X186875000Y-84700000D02*
X186875000Y-84960786D01*
X188877100Y-87377114D02*
G75*
G03*
X189584214Y-87670000I707100J707114D01*
G01*
X186875010Y-84960786D02*
G75*
G03*
X187167893Y-85667893I999990J-14D01*
G01*
X187492893Y-86992893D02*
X189147107Y-88647107D01*
X189854214Y-88940000D02*
X190799980Y-88940000D01*
X184525000Y-86700000D02*
X186785786Y-86700000D01*
X187492900Y-86992886D02*
G75*
G03*
X186785786Y-86700000I-707100J-707114D01*
G01*
X189147100Y-88647114D02*
G75*
G03*
X189854214Y-88940000I707100J707114D01*
G01*
X187924214Y-90210000D02*
X190799980Y-90210000D01*
X186875000Y-88700000D02*
X186875000Y-89160786D01*
X187167893Y-89867893D02*
X187217107Y-89917107D01*
X187217100Y-89917114D02*
G75*
G03*
X187924214Y-90210000I707100J707114D01*
G01*
X186875010Y-89160786D02*
G75*
G03*
X187167893Y-89867893I999990J-14D01*
G01*
X187192893Y-90992893D02*
X187387107Y-91187107D01*
X184525000Y-90700000D02*
X186485786Y-90700000D01*
X188094214Y-91480000D02*
X190799980Y-91480000D01*
X187387100Y-91187114D02*
G75*
G03*
X188094214Y-91480000I707100J707114D01*
G01*
X187192900Y-90992886D02*
G75*
G03*
X186485786Y-90700000I-707100J-707114D01*
G01*
X190749980Y-92700000D02*
X190799980Y-92750000D01*
X187700000Y-92700000D02*
X190749980Y-92700000D01*
X188694214Y-94020000D02*
X190799980Y-94020000D01*
X184500000Y-94700000D02*
X187185786Y-94700000D01*
X187892893Y-94407107D02*
X187987107Y-94312893D01*
X188694214Y-94020010D02*
G75*
G03*
X187987107Y-94312893I-14J-999990D01*
G01*
X187185786Y-94699990D02*
G75*
G03*
X187892893Y-94407107I14J999990D01*
G01*
X186875000Y-96700000D02*
X186875000Y-96339214D01*
X187167893Y-95632107D02*
X187217107Y-95582893D01*
X187924214Y-95290000D02*
X190799980Y-95290000D01*
X187167886Y-95632100D02*
G75*
G03*
X186875000Y-96339214I707114J-707100D01*
G01*
X187924214Y-95290010D02*
G75*
G03*
X187217107Y-95582893I-14J-999990D01*
G01*
X184525000Y-98700000D02*
X186785786Y-98700000D01*
X187492893Y-98407107D02*
X189047107Y-96852893D01*
X189754214Y-96560000D02*
X190799980Y-96560000D01*
X186785786Y-98699990D02*
G75*
G03*
X187492893Y-98407107I14J999990D01*
G01*
X189754214Y-96560010D02*
G75*
G03*
X189047107Y-96852893I-14J-999990D01*
G01*
X186875000Y-100700000D02*
X186875000Y-100156371D01*
X190500000Y-102785786D02*
X190500000Y-100669980D01*
X189292893Y-104407107D02*
X190207107Y-103492893D01*
X189901371Y-97830000D02*
X190799980Y-97830000D01*
X186875000Y-104700000D02*
X188585786Y-104700000D01*
X187681371Y-99350000D02*
X187718629Y-99350000D01*
X187109315Y-99590685D02*
X187115686Y-99584314D01*
X188284315Y-99115685D02*
X189335686Y-98064314D01*
X190500000Y-100669980D02*
X190799980Y-100370000D01*
X189901371Y-97829980D02*
G75*
G03*
X189335686Y-98064314I29J-800020D01*
G01*
X187681371Y-99349980D02*
G75*
G03*
X187115686Y-99584314I29J-800020D01*
G01*
X187718629Y-99350020D02*
G75*
G03*
X188284315Y-99115685I-29J800020D01*
G01*
X188585786Y-104699990D02*
G75*
G03*
X189292893Y-104407107I14J999990D01*
G01*
X187109330Y-99590700D02*
G75*
G03*
X186875000Y-100156371I565670J-565700D01*
G01*
X190207114Y-103492900D02*
G75*
G03*
X190500000Y-102785786I-707114J707100D01*
G01*
X188700000Y-100859808D02*
X188700000Y-100285192D01*
X184525000Y-102700000D02*
X186859808Y-102700000D01*
X189885192Y-99100000D02*
X190799980Y-99100000D01*
X188992893Y-99578085D02*
X189178085Y-99392893D01*
X187566915Y-102407107D02*
X188407107Y-101566915D01*
X188992897Y-99578089D02*
G75*
G03*
X188700000Y-100285192I707103J-707111D01*
G01*
X189885192Y-99099995D02*
G75*
G03*
X189178086Y-99392894I8J-1000005D01*
G01*
X186859808Y-102700005D02*
G75*
G03*
X187566914Y-102407106I-8J1000005D01*
G01*
X188407103Y-101566911D02*
G75*
G03*
X188700000Y-100859808I-707103J707111D01*
G01*
M02*
